<svg xmlns="http://www.w3.org/2000/svg" width="2in" height="2in" viewBox="0 0 147 147"><defs><clipPath id="a"><path fill="none" d="M89.7 36.7l8.8-20.5 33.6-1.9-2.8 22.4-32.9 7.4-6.7-7.4z"/></clipPath></defs><rect width="144" height="144" x="1.5" y="1.5" fill="#fff" stroke="#231f20" stroke-miterlimit="10" stroke-width="3" rx="14.1"/><path fill="none" stroke="#231f20" stroke-linecap="round" stroke-linejoin="round" stroke-width="3" d="M24.5 127S69 44.6 126.4 18.9M93.8 79.4a85.9 85.9 0 0 0 12.9-13.6 82.3 82.3 0 0 0 12.3-22m-78.9 68.9a63.6 63.6 0 0 0 30.3-5.7 62.6 62.6 0 0 0 26.7-23.8l-22.4 5.5m-6-24l23.5-7m-53.7 47.6l22-6M44.8 95l2.4-20.7"/><path d="M91.5 36.4l8-18.8 30.9-1.7-2.4 19.5-31.1 7.1-5.4-6.1z"/><path fill="#fff" d="M128.7 17.5l-2.1 16.7-29.1 6.6-4.3-4.7 7.4-17 28.1-1.6m3.4-3.2l-33.6 1.9-8.8 20.5 6.7 7.4 32.9-7.4 2.8-22.4z"/><path fill="none" stroke="#231f20" stroke-linecap="round" stroke-linejoin="round" stroke-width="3" d="M62 48.2a63 63 0 0 1 12.9-15 65.6 65.6 0 0 1 17-10.2M31 106.9c-.8-4.6-4.9-31.1 12.5-50.8a52 52 0 0 1 15.8-12A29.9 29.9 0 0 0 55 54.4a31.5 31.5 0 0 0 0 12.4"/><g clip-path="url(#a)"><path fill="none" stroke="#fff" stroke-linecap="round" stroke-linejoin="round" stroke-width="3" d="M24.5 127a363.5 363.5 0 0 1 29.4-44.3C63 70.9 72.1 59.1 86.9 46a211.8 211.8 0 0 1 40.9-28.2"/></g></svg>