<svg xmlns="http://www.w3.org/2000/svg" width="2in" height="2in" viewBox="0 0 147 147"><rect width="144" height="144" x="1.5" y="1.5" fill="#fff" stroke="#231f20" stroke-miterlimit="10" stroke-width="3" rx="14.1"/><path fill="none" stroke="#231f20" stroke-linecap="round" stroke-linejoin="round" stroke-width="3" d="M78.9 25a30.7 30.7 0 0 1 24.4-11.9 32.2 32.2 0 0 1 12.1 2.4 27.4 27.4 0 0 1 10.8 8.3c5.8 6.9 6.8 14.5 7.3 17.9a45.2 45.2 0 0 1-3.1 22.1C120.6 90 81.4 126 79 128.2"/><path fill="none" stroke="#231f20" stroke-linecap="round" stroke-linejoin="round" stroke-width="3" d="M79 52.6L73.4 66 79 78.9l-5.6 13.2 5.5 12.9-5.3 13.5-.2 14.7c-34.8-30.9-56-59.3-59.3-73.4a55.4 55.4 0 0 1-.8-18.1c.6-4.2 1.7-11.3 7.2-17.9a27.4 27.4 0 0 1 10.8-8.3 32.2 32.2 0 0 1 12.1-2.4c16 0 29 11.9 30 26.8 1.9 4.2 3.8 8.4 5.6 12.7z"/></svg>