<svg xmlns="http://www.w3.org/2000/svg" width="2in" height="2in" viewBox="0 0 147 147"><rect width="144" height="144" x="1.5" y="1.5" fill="#fff" stroke="#231f20" stroke-miterlimit="10" stroke-width="3" rx="14.1"/><path fill="none" stroke="#231f20" stroke-linecap="round" stroke-linejoin="round" stroke-width="3" d="M68 60.3h36.2c0 1.5.2 9.1.2 10.6.1 7.6.2 10.8.2 14.9s.1 6.4.2 11.1M52.9 60.3h-9.6V115h60.9v-3.4M86.3 36v-7.9H97v16.7"/><path fill="#00abbd" stroke="#231f20" stroke-linecap="round" stroke-linejoin="round" stroke-width="3" d="M49.1 56.3h-6.3l2.7-2.3"/><path fill="none" stroke="#231f20" stroke-linecap="round" stroke-linejoin="round" stroke-width="3" d="M54.5 46.2l3.5-3.1L73.3 30l15.2 13.1 15.2 13.2h-40"/><path fill="none" stroke="#231f20" stroke-linecap="round" stroke-linejoin="round" stroke-width="6" d="M32.1 32.1l82.8 82.8"/><circle cx="73.5" cy="73.5" r="58.7" fill="none" stroke="#231f20" stroke-linecap="round" stroke-linejoin="round" stroke-width="6"/></svg>