<svg xmlns="http://www.w3.org/2000/svg" width="9.6in" height="2.7in" viewBox="0 0 692.1 192.4"><path fill="#58595b" d="M222.7 60.1v5.1c0 6.2 1.9 9.7 6.8 9.7s6.3-4.8 6.3-10.2c0-8.9-1.9-11.7-10.9-18.7s-13.7-11.6-13.7-24 3.3-22 18.3-22 17.8 11 17.8 20v4.5h-12.8v-4.2c0-5.7-.9-9.3-5.2-9.3s-5.3 3.7-5.3 9.2 1.1 8.8 8.5 14.1c12.4 9.2 16.2 14.6 16.2 28.5 0 11.8-4.1 23-19.6 23S209.9 76 209.9 65v-4.9zm51.3 0v5.1c0 6.2 1.8 9.7 6.7 9.7s6.3-4.8 6.3-10.2c0-8.9-1.9-11.7-10.8-18.7s-13.8-11.6-13.8-24 3.3-22 18.4-22 17.7 11 17.7 20v4.5h-12.7v-4.2c0-5.7-1-9.3-5.3-9.3s-5.3 3.7-5.3 9.2 1.2 8.8 8.5 14.1c12.4 9.2 16.3 14.6 16.3 28.5 0 11.8-4.2 23-19.7 23S261.1 76 261.1 65v-4.9zm82.8-6.5c0-14.1.2-31.8.4-41.3h-.1c-1.9 14.5-6.5 48.2-10.1 72.3h-12.2c-2.6-21.6-7.3-57.2-9.2-72.4h-.2c.2 9.7.6 28.5.6 42.9v29.5h-11.6V1.3h19.1c3.2 21.2 6.6 44.9 7.7 56.6h.1c1.4-11.8 5.9-36.6 9.2-56.6H369v83.3h-12.2zm103-19.1l-13.2 30.7c-5.9 13.6-11.8 20.4-22.2 20.4-12.3 0-18-9.2-18-23s5.2-18 16.2-26.8c7.8-6.2 9.9-8.8 9.9-16.9 0-5.1-.9-8.2-4.6-8.2s-4.7 3.7-4.7 8.1c0 6.5.5 9.4 4.1 14.9l32.2 50.9h-14.4l-26.9-41.8c-5.3-8.3-6.8-12.6-6.8-22.7 0-12.9 6-19.8 16.3-19.8S444 6.7 444 19.1s-3.5 15.7-15.2 24.7c-8 6.1-9.9 8.6-9.9 17.6s2.6 11.5 7.2 11.5 6.7-3.5 9.9-10.8l11.7-27.6zm47 27.8l-2.9 22.3h-13.1l13.5-83.3h18.1l13.9 83.3h-13.4l-3.3-22.3zm11.3-11.8c-1.9-14.1-3.7-27.6-4.7-37h-.4c-.4 6.9-2.9 24.7-4.6 37zm43.5-3.1v37.2h-12.9V1.3h17.8c12.7 0 20.1 5.1 20.1 20.1v3.2c0 12.8-5.2 16-8.4 17.3 4.8 2.3 7.6 5.8 7.6 17.1 0 7-.1 20.6.8 25.6h-12.4c-1.1-5-.9-18.7-.9-24.8 0-10.1-1.3-12.4-8.8-12.4zm0-10.6h2.9c6.8 0 9.3-2.6 9.3-11.7v-2.8c0-6.5-1.3-10.4-8.6-10.4h-3.6zm71.9 9.8h-18.3v26.2h21.1l-1.7 11.8h-32.3V1.3h32.2v11.9h-19.3v21.5h18.3zm29.1 15.7l-2.9 22.3h-13l13.4-83.3h18.1l13.9 83.3h-13.4l-3.3-22.3zm11.3-11.8c-1.9-14.1-3.7-27.6-4.6-37h-.5c-.4 6.9-2.9 24.7-4.5 37zm-460 66.6h12.9c16.1 0 17.7 10.4 17.7 21.7v29.5c0 11.5-1.7 23.2-18.3 23.2h-12.3zm7 68.2h4.7c9.4 0 11.7-5.2 11.7-15.4v-32.1c0-9-1.6-14.5-11.6-14.5h-4.8zm43.2-28.9v35.1H257v-74.4h12.4c11.1 0 16.3 4.9 16.3 16.9v3.6c0 9.8-3.3 14.2-7.6 15.7 4.8 1.6 7 5.3 7 15.2 0 6.4-.1 18.2.7 23h-6.9c-.9-4.7-.8-17.3-.8-22.4 0-9.8-1.4-12.7-8.9-12.7zm0-6.1h5.4c7.3 0 9.1-4.5 9.1-12.4v-3.5c0-7-2.1-11.2-9.7-11.2h-4.8zm40.3-33.2v58.1c0 6.3 2.2 10.7 8.1 10.7s8-4 8-10.6v-58.2h7.1V175c0 11.4-5.1 17.4-15.3 17.4s-15-5.6-15-17.2v-58.1zm65.7 74.4h-5.7c-.2-1.2-.4-5-.5-6.7-1.8 5.7-6 7.6-10.8 7.6-10.2 0-13.5-7.5-13.5-19.2v-37.7c0-12.2 5-19.4 15.5-19.4 12.3 0 14.8 8.7 14.8 18.5v1.7h-7v-1.8c0-5.5-.7-11.9-7.9-11.9-5.4 0-8.2 3.4-8.2 12.4v38.4c0 7.6 2 12.7 7.7 12.7 7.3 0 8.4-6.8 8.4-16.7v-12.1h-8.7V151h15.9zm34-20.8v4.3c0 7.3 2.6 11.2 8 11.2s7.9-3.7 7.9-12.7-2-12.4-9.8-18.5-11.9-9.9-11.9-20.8c0-9.3 2.8-18.2 14-18.1s13.6 6.9 13.6 16.6v3.4h-7v-3.2c0-6.4-1.3-10.6-6.7-10.6s-6.8 4.8-6.8 10.8 1.4 10 8.3 15.2c10.2 7.7 13.4 12 13.4 24.3 0 10.4-2.8 19.8-15.1 19.8s-15-7.6-15-17.4v-4.3zm40.6-47h-12v-6.6h31.1v6.6h-12v67.8h-7.1zm34.4 32.7v35.1h-7v-74.4h12.3c11.1 0 16.3 4.9 16.3 16.9v3.6c0 9.8-3.2 14.2-7.5 15.7 4.8 1.6 6.9 5.3 6.9 15.2 0 6.4-.1 18.2.7 23h-6.9c-.9-4.7-.8-17.3-.8-22.4 0-9.8-1.4-12.7-8.9-12.7zm0-6.1h5.4c7.3 0 9.1-4.5 9.1-12.4v-3.5c0-7-2-11.2-9.7-11.2h-4.8zm41.2 16.5l-3.8 24.7h-7.2l12.3-74.4h10.1l12.8 74.4h-7.4l-4.1-24.7zm11.8-6.5c-2.8-17.2-4.7-30-5.4-36.7h-.3c-.3 5.6-3 22.5-5.2 36.7zm24.2-36.6h-12.1v-6.6h31.1v6.6h-12v67.8h-7zm51.1 31.3h-16.8v29.9h19l-1 6.6h-25v-74.4h24.7v6.6h-17.7v24.8h16.8zm41.2 36.5H643c-.2-1.2-.4-5-.5-6.7-1.8 5.7-6 7.6-10.8 7.6-10.2 0-13.5-7.5-13.5-19.2v-37.7c0-12.2 4.9-19.4 15.5-19.4 12.3 0 14.8 8.7 14.8 18.5v1.7h-7.1v-1.8c0-5.5-.6-11.9-7.8-11.9-5.4 0-8.2 3.4-8.2 12.4v38.4c0 7.6 2 12.7 7.7 12.7s8.4-6.8 8.4-16.7v-12.1h-8.7V151h15.8zm20.5 0v-28.1a5.4 5.4 0 0 0-.3-1.9l-13.6-44.4h7.8c3.8 13.8 8.5 30.3 9.8 36.9h.1c1.4-6.8 6.2-23.8 9.8-36.9h7.5l-13.8 44.8a9.1 9.1 0 0 0-.2 2.1v27.5z"/><path fill="#d1d3d4" d="M33.1 105.2v34.1h-6.5a26.6 26.6 0 1 0 26.5 27.3v-7.3h34.1l-4.9-5-4.9-5 4.9-5 4.9-5H53.1v-34.1h-20zm0 54.1v6.5a6.6 6.6 0 1 1-6.5-6.5zm5-59l-5 4.9h20l-5-4.9-5-4.9-5 4.9z"/><path fill="#58595b" d="M87.1 33.1h-34v-6.5a26.6 26.6 0 1 0-27.3 26.5h7.3v34.1l5-4.9 5-4.9 5 4.9 5 4.9V53.1h34v-20zm-54 0h-6.5a6.6 6.6 0 1 1 6.5-6.5zm59 5l-4.9-5v20l4.9-5 4.9-5-4.9-5z"/><path fill="#a7a9ac" d="M106.1 159.3h34.1v6.6a26.6 26.6 0 1 0 27.3-26.6h-7.3v-34.1l-5 4.9-5 4.9-5-4.9-5-4.9v34.1h-34.1v19.9zm54.1 0h6.5a6.7 6.7 0 0 1 6.6 6.6 6.6 6.6 0 0 1-6.6 6.5 6.5 6.5 0 0 1-6.5-6.5z"/><path fill="#a7a9ac" d="M101.2 154.3l4.9 5v-19.9l-4.9 5-5 5 5 4.9z"/><path fill="#808285" d="M160.2 87.2v-34h6.5a26.6 26.6 0 1 0-26.5-27.4v7.4H106l4.9 4.9 5 5-5 5-4.9 5h34.2v34h20zm0-54v-6.6a6.6 6.6 0 0 1 6.5-6.6 6.6 6.6 0 1 1 0 13.2z"/><path fill="#808285" d="M155.2 92.1l5-4.9h-20l5 4.9 5 5 5-5z"/></svg>