<svg xmlns="http://www.w3.org/2000/svg" width="2in" height="2in" viewBox="0 0 147 147"><rect width="144" height="144" x="1.5" y="1.5" fill="#fff" stroke="#231f20" stroke-miterlimit="10" stroke-width="3" rx="14.1"/><circle cx="73.4" cy="36.8" r="18" fill="none" stroke="#231f20" stroke-linecap="round" stroke-linejoin="round" stroke-width="3"/><path fill="#fff" stroke="#231f20" stroke-linecap="round" stroke-linejoin="round" stroke-width="3" d="M92.3 89.6a18.7 18.7 0 0 0-1.3-5.8 21.8 21.8 0 0 0-3.7-5.9 20.4 20.4 0 0 0-5.4-4 19 19 0 0 0-8.3-1.9 16 16 0 0 0-17 17.8c.7 4.9 3.8 10.3 8.4 11.8s6-.7 9 1.2 3.1 4.3 3.8 7a30.9 30.9 0 0 1-.8 17.3 76.6 76.6 0 0 0 10.5-15.4 46.1 46.1 0 0 0 4.4-12.2 31.9 31.9 0 0 0 .4-9.9z"/></svg>