<svg xmlns="http://www.w3.org/2000/svg" width="2in" height="2in" viewBox="0 0 147 147"><rect width="144" height="144" x="1.5" y="1.5" fill="#fff" stroke="#231f20" stroke-miterlimit="10" stroke-width="3" rx="14.1"/><path fill="none" stroke="#231f20" stroke-linecap="round" stroke-linejoin="round" stroke-width="3" d="M24.5 127S69 44.6 126.4 18.9m-96.7 83.2c-7.2-13.6-6.9-23.8-5.8-29.7 5.2-28.9 46.2-52.9 102.5-53.5"/><path fill="none" stroke="#231f20" stroke-linecap="round" stroke-linejoin="round" stroke-width="3" d="M38.9 112.6c13.4 7.9 23.5 8.1 29.4 7.3 29.3-3.9 55.1-44.2 58.1-101"/><path fill="none" stroke="#231f20" stroke-linecap="round" stroke-linejoin="round" stroke-width="3" d="M42.6 63.1a65.3 65.3 0 0 1 1.9 16.5c-.1 9.4-2.1 13.9.3 15.9s8.3-2.8 18.7-4.6a43 43 0 0 1 16.9.6M63.3 44.1a52.8 52.8 0 0 1 1.5 12.7c-.1 7.3-1.7 10.8.2 12.2s6.4-2.1 14.4-3.5a33.7 33.7 0 0 1 13.1.5m-5.9-34.2a37.3 37.3 0 0 1-1.4 9c-1.5 4.9-3.2 6.9-2.2 8.3s4.8-.2 10.4.4a22.1 22.1 0 0 1 8.8 2.8"/></svg>